<svg width="28" height="28" viewBox="0 0 28 28" fill="none" xmlns="http://www.w3.org/2000/svg">
<circle r="3.33333" transform="matrix(-1 0 0 1 14 13.6666)" fill="#4E8EF8"/>
<path d="M4 13.6667C4 13.6667 8.47715 20.3333 14 20.3333C19.5228 20.3333 24 13.6667 24 13.6667C24 13.6667 19.5228 7 14 7C8.47715 7 4 13.6667 4 13.6667Z" stroke="#4E8EF8" stroke-width="2" stroke-linejoin="round"/>
<path d="M26.0605 4.47472C26.6463 3.88894 26.6463 2.93919 26.0605 2.3534C25.4747 1.76762 24.525 1.76762 23.9392 2.3534L2.3534 23.9392C1.76762 24.525 1.76762 25.4747 2.3534 26.0605C2.93919 26.6463 3.88894 26.6463 4.47472 26.0605L26.0605 4.47472Z" fill="#4E8EF8" stroke="white" stroke-linecap="round"/>
</svg>
