<svg width="30" height="25" viewBox="0 0 30 25" fill="none" xmlns="http://www.w3.org/2000/svg">
<path d="M28.2422 1H1.55689C1.20197 1 0.935781 1.33398 1.01342 1.69022C1.07997 1.94627 1.32397 2.11326 1.59016 2.11326H3.22056C3.23165 2.11326 3.23165 2.1244 3.23165 2.1244V18.1442C3.23165 18.456 3.48675 18.7009 3.78621 18.7009H9.57579C9.58688 18.7009 9.58688 18.712 9.58688 18.7231L8.16721 23.2764C8.07848 23.577 8.24485 23.8887 8.53322 23.9777C8.58868 24 8.64413 24 8.69959 24C8.9325 24 9.15432 23.8441 9.23196 23.6104L10.7736 18.7231C10.7736 18.712 10.7847 18.712 10.7847 18.712H19.0254C19.0365 18.712 19.0365 18.712 19.0365 18.7231L20.5782 23.6104C20.6558 23.8553 20.8777 24 21.1106 24C21.166 24 21.2215 23.9889 21.277 23.9777C21.5764 23.8887 21.7317 23.577 21.643 23.2764L20.2233 18.7231C20.2233 18.712 20.2233 18.7009 20.2344 18.7009H26.024C26.3345 18.7009 26.5785 18.4448 26.5785 18.1442V2.1244C26.5785 2.11326 26.5896 2.11326 26.5896 2.11326H28.2533C28.5638 2.11326 28.8078 1.85721 28.8078 1.55663C28.8078 1.25605 28.5527 1 28.2422 1ZM25.4472 17.5987H4.36295C4.35185 17.5987 4.35186 17.5876 4.35186 17.5876V2.13553C4.35186 2.12439 4.36295 2.1244 4.36295 2.1244H25.4472C25.4583 2.1244 25.4583 2.13553 25.4583 2.13553V17.5987H25.4472Z" fill="#4E8EF8"/>
<path fill-rule="evenodd" clip-rule="evenodd" d="M0.62255 1.77537C0.492231 1.1774 0.938927 0.599976 1.55684 0.599976H28.2422C28.7699 0.599976 29.2078 1.0314 29.2078 1.55661C29.2078 2.07146 28.7913 2.51324 28.2532 2.51324H26.9785V18.1442C26.9785 18.6591 26.562 19.1008 26.0239 19.1008H20.76L22.0266 23.1631C22.173 23.6591 21.9176 24.2045 21.3909 24.3611L21.3735 24.3663L21.3556 24.3699L21.3471 24.3716C21.2968 24.3818 21.2069 24.4 21.1105 24.4C20.7136 24.4 20.3302 24.152 20.1969 23.7312L18.7397 19.112H11.0704L9.61158 23.7364C9.47985 24.1331 9.10552 24.4 8.69954 24.4C8.69679 24.4 8.69372 24.4 8.69036 24.4C8.64029 24.4003 8.52454 24.4008 8.40136 24.3555C7.90663 24.1946 7.63594 23.6631 7.78353 23.1631L7.78526 23.1573L9.05007 19.1008H3.78616C3.26959 19.1008 2.83161 18.6806 2.83161 18.1442V2.51324H1.59012C1.16587 2.51324 0.744401 2.24547 0.626238 1.79081L0.624241 1.78313L0.62255 1.77537ZM19.0254 19.112C19.0309 19.112 19.0293 19.1121 19.0235 19.112H19.0254ZM18.6365 18.725C18.6364 18.7192 18.6365 18.7176 18.6365 18.7231V18.725ZM1.40253 1.59644C1.42078 1.65217 1.48627 1.71324 1.59012 1.71324H3.22052C3.29359 1.71324 3.37496 1.73274 3.44938 1.78254C3.52122 1.83061 3.56398 1.89173 3.58826 1.94045C3.61177 1.98764 3.62152 2.02997 3.62603 2.05711C3.62844 2.07163 3.6298 2.0846 3.63058 2.0955C3.63097 2.10101 3.63122 2.10619 3.63138 2.11097L3.63155 2.11791L3.63159 2.1212L3.6316 2.1228L3.63161 2.12398C3.63161 2.12417 3.63161 2.12437 3.23161 2.12437L3.63161 2.12398L3.63161 18.1442C3.63161 18.2312 3.70381 18.3008 3.78616 18.3008H9.57575C9.64802 18.3008 9.74234 18.3204 9.8283 18.3875C9.91068 18.4518 9.94819 18.5309 9.96507 18.5817C9.98119 18.6303 9.98464 18.6712 9.98578 18.6884C9.98647 18.6988 9.98668 18.7073 9.98676 18.7126L9.98684 18.7231V18.784L8.55019 23.3917C8.52312 23.4874 8.57848 23.5731 8.65121 23.5955L8.66459 23.5997C8.66561 23.5997 8.66674 23.5997 8.66799 23.5998L8.68126 23.5999L8.69954 23.6C8.75884 23.6 8.82746 23.556 8.85163 23.4862L10.3864 18.621C10.3971 18.5788 10.4151 18.5361 10.4421 18.4954C10.4899 18.4235 10.5508 18.3804 10.5997 18.3559C10.6471 18.3321 10.6896 18.3222 10.717 18.3176C10.7316 18.3152 10.7447 18.3138 10.7556 18.313C10.7583 18.3128 10.761 18.3127 10.7635 18.3125C10.7662 18.3124 10.7687 18.3123 10.7712 18.3122L10.7782 18.312L10.7815 18.312L10.7831 18.312L10.7843 18.312C10.7845 18.312 10.7847 18.312 10.7847 18.5418L10.7843 18.312H19.0254L19.0372 18.3121C19.0429 18.3122 19.0577 18.3126 19.0761 18.3146C19.1023 18.3175 19.2186 18.3309 19.3184 18.431C19.391 18.5038 19.4176 18.5853 19.4278 18.634L20.9595 23.4895C20.9595 23.4895 20.9595 23.4894 20.9595 23.4895C20.9814 23.5585 21.0417 23.6 21.1105 23.6C21.1182 23.6 21.1312 23.5986 21.175 23.5901C21.2406 23.5641 21.2879 23.4899 21.2599 23.3918L19.8232 18.784V18.7231L19.8233 18.7126C19.8234 18.7089 19.8235 18.7037 19.8238 18.6973C19.8239 18.6945 19.8241 18.6916 19.8243 18.6884C19.8254 18.6712 19.8289 18.6303 19.845 18.5818C19.8619 18.5309 19.8994 18.4518 19.9818 18.3875C20.0677 18.3204 20.1621 18.3008 20.2343 18.3008H26.0239C26.107 18.3008 26.1785 18.2305 26.1785 18.1442V2.12437C26.1785 2.05191 26.1977 1.97094 26.247 1.89664C26.2947 1.82477 26.3556 1.78171 26.4046 1.75713C26.4519 1.73336 26.4945 1.72347 26.5218 1.7189C26.5364 1.71645 26.5495 1.71507 26.5605 1.71428C26.566 1.71389 26.5713 1.71363 26.5761 1.71346L26.5831 1.71329L26.5864 1.71325L26.588 1.71324L26.5892 1.71324C26.5894 1.71324 26.5896 1.71324 26.5896 2.11324M26.5896 2.11324L26.5892 1.71324L28.2532 1.71324C28.3363 1.71324 28.4078 1.64291 28.4078 1.55661C28.4078 1.48065 28.3355 1.39998 28.2422 1.39998H1.55684C1.46723 1.39998 1.38355 1.48602 1.40253 1.59644M4.75181 2.52437H25.0583V17.1987H4.75181V2.52437ZM4.3629 1.72437H25.4472C25.5203 1.72437 25.6016 1.74388 25.676 1.79367C25.7479 1.84174 25.7906 1.90284 25.8149 1.95157C25.8384 1.99876 25.8482 2.04108 25.8527 2.06822C25.8551 2.08274 25.8565 2.09571 25.8572 2.10661C25.8576 2.11212 25.8579 2.1173 25.858 2.12208L25.8582 2.12902L25.8583 2.13231L25.8583 2.13391L25.8583 2.13509C25.8583 2.13528 25.8583 2.13548 25.4583 2.1355L25.8583 2.13509V17.9987H4.3629C4.28983 17.9987 4.20845 17.9792 4.13403 17.9294C4.06219 17.8813 4.01943 17.8202 3.99516 17.7715C3.97165 17.7243 3.96189 17.682 3.95739 17.6548C3.95498 17.6403 3.95362 17.6273 3.95284 17.6164C3.95245 17.6109 3.95219 17.6058 3.95204 17.601L3.95186 17.594L3.95183 17.5907L3.95182 17.5891L3.95181 17.588C3.95181 17.5878 3.95181 17.5876 4.31818 17.5876L3.95181 17.588L3.95181 2.1355C3.95181 2.06303 3.97099 1.98207 4.02034 1.90776C4.06808 1.83589 4.12898 1.79283 4.17794 1.76826C4.2253 1.74449 4.26783 1.7346 4.29517 1.73003C4.30979 1.72758 4.32285 1.7262 4.33382 1.72542C4.33938 1.72502 4.34459 1.72476 4.34941 1.7246L4.3564 1.72442L4.35971 1.72438L4.36132 1.72437L4.3629 1.72437C4.3631 1.72437 4.3629 1.72437 4.3629 2.1101V1.72437ZM10.7847 18.7231C10.7847 18.7194 10.7847 18.7157 10.7847 18.712L10.7847 18.7231Z" fill="#4E8EF8"/>
<path d="M8.46664 15.4165H10.1636C10.7847 15.4165 11.2838 14.9044 11.2838 14.2921V11.6536C11.2838 11.0302 10.7736 10.5292 10.1636 10.5292H8.46664C7.84554 10.5292 7.34644 11.0413 7.34644 11.6536V14.2921C7.34644 14.9044 7.85663 15.4165 8.46664 15.4165ZM10.1747 11.6536V14.2809C10.1747 14.2921 10.1636 14.2921 10.1636 14.2921H8.47773C8.46664 14.2921 8.46664 14.2809 8.46664 14.2809V11.6536C8.46664 11.6425 8.47773 11.6425 8.47773 11.6425H10.1636L10.1747 11.6536Z" fill="#4E8EF8"/>
<path fill-rule="evenodd" clip-rule="evenodd" d="M6.94641 11.6537C6.94641 10.8245 7.62063 10.1293 8.46662 10.1293H10.1636C10.9933 10.1293 11.6838 10.8082 11.6838 11.6537V14.2921C11.6838 15.1213 11.0096 15.8165 10.1636 15.8165H8.46662C7.63428 15.8165 6.94641 15.1239 6.94641 14.2921V11.6537ZM8.46662 10.9293C8.0704 10.9293 7.74641 11.2583 7.74641 11.6537V14.2921C7.74641 14.6849 8.07892 15.0165 8.46662 15.0165H10.1636C10.5598 15.0165 10.8838 14.6875 10.8838 14.2921V12.0425H10.5747V14.281C10.5747 14.3534 10.5555 14.4344 10.5061 14.5087C10.4584 14.5806 10.3975 14.6236 10.3485 14.6482C10.3012 14.672 10.2586 14.6819 10.2313 14.6864C10.2167 14.6889 10.2036 14.6903 10.1926 14.6911C10.1871 14.6915 10.1819 14.6917 10.1771 14.6919L10.1701 14.6921L10.1667 14.6921L10.1651 14.6921L10.1639 14.6921C10.1638 14.6921 10.1636 14.6921 10.1636 14.3267L10.1639 14.6921H8.47771C8.40464 14.6921 8.32326 14.6726 8.24884 14.6228C8.177 14.5747 8.13424 14.5136 8.10996 14.4649C8.08646 14.4177 8.0767 14.3754 8.07219 14.3482C8.06978 14.3337 8.06842 14.3207 8.06765 14.3098C8.06725 14.3043 8.067 14.2991 8.06684 14.2944L8.06667 14.2874L8.06663 14.2841L8.06662 14.2825L8.06662 14.2814C8.06662 14.2812 8.06662 14.281 8.43041 14.281L8.06662 14.2814L8.06662 11.6537C8.06662 11.5812 8.0858 11.5002 8.13515 11.4259C8.18288 11.3541 8.24379 11.311 8.29274 11.2864C8.3401 11.2627 8.38264 11.2528 8.40998 11.2482C8.4246 11.2457 8.43765 11.2444 8.44863 11.2436C8.45419 11.2432 8.4594 11.2429 8.46421 11.2428L8.47121 11.2426L8.47452 11.2425L8.47613 11.2425L8.47732 11.2425C8.47751 11.2425 8.4777 11.2425 8.47771 11.6072L8.47732 11.2425L10.1636 11.2425V11.6425L10.427 11.3415L10.8838 11.7412V11.6537C10.8838 11.2523 10.5538 10.9293 10.1636 10.9293H8.46662ZM9.77465 12.0425H8.86662V13.8921H9.77465V12.0425Z" fill="#4E8EF8"/>
<path d="M14.0452 15.4168H15.7532C16.3743 15.4168 16.8735 14.9047 16.8735 14.2924V8.89307C16.8735 8.26965 16.3633 7.76868 15.7532 7.76868H14.0563C13.4352 7.76868 12.9361 8.28078 12.9361 8.89307V14.3035C12.925 14.9158 13.4241 15.4168 14.0452 15.4168ZM15.7532 8.89307V14.2924C15.7532 14.3035 15.7422 14.3035 15.7422 14.3035H14.0563C14.0452 14.3035 14.0452 14.2924 14.0452 14.2924V8.89307C14.0452 8.88194 14.0563 8.88194 14.0563 8.88194H15.7422L15.7532 8.89307Z" fill="#4E8EF8"/>
<path fill-rule="evenodd" clip-rule="evenodd" d="M12.5362 8.89305C12.5362 8.06383 13.2104 7.36865 14.0564 7.36865H15.7533C16.5831 7.36865 17.2736 8.04754 17.2736 8.89305V14.2924C17.2736 15.1216 16.5993 15.8168 15.7533 15.8168H14.0453C13.2072 15.8168 12.5231 15.1398 12.5362 14.3002V8.89305ZM14.0564 8.16865C13.6602 8.16865 13.3362 8.49767 13.3362 8.89305V14.3107C13.3293 14.6939 13.6425 15.0168 14.0453 15.0168H15.7533C16.1496 15.0168 16.4736 14.6877 16.4736 14.2924V8.89305C16.4736 8.4917 16.1436 8.16865 15.7533 8.16865H14.0564ZM14.4453 9.28192V13.9035H15.3533V9.28192H14.4453ZM15.4589 9.16426C15.459 9.1643 15.459 9.16435 15.4589 9.16426V9.16426ZM15.7423 8.88192V8.48192H14.0564V8.84598C14.0564 8.48192 14.0566 8.48191 14.0564 8.48192L14.0548 8.48192L14.0532 8.48193L14.0499 8.48197L14.0429 8.48214C14.0381 8.4823 14.0329 8.48256 14.0273 8.48296C14.0163 8.48375 14.0033 8.48513 13.9887 8.48757C13.9613 8.49214 13.9188 8.50204 13.8714 8.5258C13.8225 8.55037 13.7616 8.59343 13.7138 8.66531C13.6645 8.73961 13.6453 8.82058 13.6453 8.89305V14.2924H14.0091C13.6453 14.2924 13.6453 14.2922 13.6453 14.2924L13.6453 14.2939L13.6453 14.2955L13.6454 14.2988L13.6455 14.3058C13.6457 14.3105 13.6459 14.3157 13.6463 14.3212C13.6471 14.3321 13.6485 14.3451 13.6509 14.3596C13.6554 14.3868 13.6651 14.4291 13.6887 14.4763C13.7129 14.525 13.7557 14.5861 13.8275 14.6342C13.902 14.684 13.9833 14.7035 14.0564 14.7035H15.7423V14.3395C15.7423 14.7035 15.7421 14.7035 15.7423 14.7035L15.7438 14.7035L15.7454 14.7035L15.7488 14.7035L15.7557 14.7033C15.7606 14.7031 15.7658 14.7029 15.7713 14.7025C15.7823 14.7017 15.7954 14.7003 15.81 14.6978C15.8373 14.6933 15.8799 14.6834 15.9272 14.6596C15.9762 14.6351 16.0371 14.592 16.0848 14.5201C16.1342 14.4458 16.1533 14.3648 16.1533 14.2924V8.72779L16.0367 8.61072L16.0273 8.60133L16.0257 8.59972C16.0258 8.59976 16.0257 8.59967 16.0257 8.59972L15.7423 8.88192Z" fill="#4E8EF8"/>
<path d="M19.6239 15.4168H21.332C21.9531 15.4168 22.4522 14.9047 22.4522 14.2924V5.43079C22.4522 4.80736 21.942 4.3064 21.332 4.3064H19.635C19.0139 4.3064 18.5148 4.8185 18.5148 5.43079V14.3035C18.5037 14.9158 19.0028 15.4168 19.6239 15.4168ZM21.332 5.43079V14.2812C21.332 14.2924 21.3209 14.2924 21.3209 14.2924H19.635C19.6239 14.2924 19.6239 14.2812 19.6239 14.2812V5.43079C19.6239 5.41966 19.635 5.41966 19.635 5.41966H21.3209L21.332 5.43079Z" fill="#4E8EF8"/>
<path fill-rule="evenodd" clip-rule="evenodd" d="M18.1149 5.43083C18.1149 4.60161 18.7891 3.90643 19.6351 3.90643H21.3321C22.1618 3.90643 22.8523 4.58532 22.8523 5.43083V14.2924C22.8523 15.1216 22.1781 15.8168 21.3321 15.8168H19.624C18.786 15.8168 18.1019 15.1398 18.1149 14.3002V5.43083ZM19.6351 4.70643C19.2389 4.70643 18.9149 5.03546 18.9149 5.43083V14.3108C18.908 14.6939 19.2212 15.0168 19.624 15.0168H21.3321C21.7283 15.0168 22.0523 14.6878 22.0523 14.2924V5.43083C22.0523 5.02948 21.7224 4.70643 21.3321 4.70643H19.6351ZM20.024 5.8197V13.8924H20.9321V5.8197H20.024ZM21.721 5.25444L21.7321 5.26557V14.2813C21.7321 14.3537 21.7129 14.4347 21.6635 14.509C21.6158 14.5809 21.5549 14.624 21.5059 14.6485C21.4586 14.6723 21.416 14.6822 21.3887 14.6867C21.3741 14.6892 21.361 14.6906 21.35 14.6914C21.3445 14.6918 21.3393 14.692 21.3345 14.6922L21.3275 14.6923L21.3242 14.6924L21.3225 14.6924L21.3214 14.6924C21.3212 14.6924 21.321 14.6924 21.321 14.461L21.3214 14.6924H19.6351C19.5621 14.6924 19.4807 14.6729 19.4063 14.6231C19.3345 14.575 19.2917 14.5139 19.2674 14.4652C19.2439 14.418 19.2341 14.3757 19.2296 14.3486C19.2272 14.334 19.2259 14.3211 19.2251 14.3102C19.2247 14.3046 19.2244 14.2995 19.2243 14.2947L19.2241 14.2877L19.2241 14.2845L19.224 14.2829L19.224 14.2817C19.224 14.2815 19.224 14.2813 19.624 14.2813L19.224 14.2817L19.224 5.43083C19.224 5.35835 19.2432 5.27738 19.2926 5.20307C19.3403 5.1312 19.4012 5.08814 19.4502 5.06358C19.4975 5.03981 19.5401 5.02992 19.5674 5.02535C19.582 5.02291 19.5951 5.02153 19.6061 5.02074C19.6116 5.02034 19.6168 5.02008 19.6216 5.01992L19.6286 5.01975L19.6319 5.01971L19.6336 5.0197L19.6348 5.0197C19.6349 5.0197 19.6351 5.0197 19.6351 5.38374L19.6348 5.0197L21.721 5.0197V5.25444ZM21.6152 5.14825C21.6151 5.14816 21.6151 5.14813 21.6152 5.14825V5.14825Z" fill="#4E8EF8"/>
</svg>
