<svg width="28" height="28" viewBox="0 0 28 28" fill="none" xmlns="http://www.w3.org/2000/svg">
<path d="M7.16158 12.9327C7.58169 12.9327 7.95512 13.3208 7.95512 13.7574V15.1641C7.95512 15.6007 7.58169 15.9887 7.16158 15.9887C6.74147 15.9887 6.36804 15.6007 6.36804 15.1641V13.7574C6.36804 13.2723 6.69479 12.9327 7.16158 12.9327Z" fill="#83B0FA"/>
<path fill-rule="evenodd" clip-rule="evenodd" d="M6.69783 13.2671C6.5877 13.3816 6.51802 13.549 6.51802 13.7573V15.1641C6.51802 15.5233 6.82967 15.8387 7.16155 15.8387C7.49344 15.8387 7.80509 15.5233 7.80509 15.1641V13.7573C7.80509 13.3981 7.49344 13.0827 7.16155 13.0827C6.96591 13.0827 6.80755 13.1531 6.69783 13.2671ZM6.48166 13.0591C6.65201 12.8821 6.89041 12.7827 7.16155 12.7827C7.66989 12.7827 8.10509 13.2434 8.10509 13.7573V15.1641C8.10509 15.678 7.66989 16.1387 7.16155 16.1387C6.65322 16.1387 6.21802 15.678 6.21802 15.1641V13.7573C6.21802 13.4806 6.31171 13.2357 6.48166 13.0591Z" fill="#83B0FA"/>
<path d="M7.16158 18.9962C7.58169 18.9962 7.95512 19.3842 7.95512 19.8208V21.2275C7.95512 21.6641 7.58169 22.0521 7.16158 22.0521C6.74147 22.0521 6.36804 21.6641 6.36804 21.2275V19.8208C6.36804 19.3842 6.69479 18.9962 7.16158 18.9962Z" fill="#83B0FA"/>
<path fill-rule="evenodd" clip-rule="evenodd" d="M7.16155 19.1462C6.78858 19.1462 6.51802 19.4557 6.51802 19.8208V21.2275C6.51802 21.5867 6.82967 21.9022 7.16155 21.9022C7.49344 21.9022 7.80509 21.5867 7.80509 21.2275V19.8208C7.80509 19.4616 7.49344 19.1462 7.16155 19.1462ZM6.21802 19.8208C6.21802 19.3128 6.60095 18.8462 7.16155 18.8462C7.66989 18.8462 8.10509 19.3069 8.10509 19.8208V21.2275C8.10509 21.7415 7.66989 22.2022 7.16155 22.2022C6.65322 22.2022 6.21802 21.7415 6.21802 21.2275V19.8208Z" fill="#83B0FA"/>
<path d="M7.16158 6.86932C7.58169 6.86932 7.95512 7.25738 7.95512 7.69395V9.10067C7.95512 9.53723 7.58169 9.92529 7.16158 9.92529C6.74147 9.92529 6.36804 9.53723 6.36804 9.10067V7.69395C6.36804 7.20888 6.69479 6.86932 7.16158 6.86932Z" fill="#83B0FA"/>
<path fill-rule="evenodd" clip-rule="evenodd" d="M6.69783 7.20372C6.5877 7.31815 6.51802 7.48559 6.51802 7.69393V9.10064C6.51802 9.45985 6.82967 9.77527 7.16155 9.77527C7.49344 9.77527 7.80509 9.45985 7.80509 9.10064V7.69393C7.80509 7.33472 7.49344 7.0193 7.16155 7.0193C6.96591 7.0193 6.80755 7.0897 6.69783 7.20372ZM6.48166 6.9957C6.65201 6.81867 6.89041 6.7193 7.16155 6.7193C7.66989 6.7193 8.10509 7.18 8.10509 7.69393V9.10064C8.10509 9.61457 7.66989 10.0753 7.16155 10.0753C6.65322 10.0753 6.21802 9.61457 6.21802 9.10064V7.69393C6.21802 7.41719 6.31171 7.17231 6.48166 6.9957Z" fill="#83B0FA"/>
<path d="M12.0163 18.9962C12.4364 18.9962 12.8099 19.3842 12.8099 19.8208V21.2275C12.8099 21.6641 12.4364 22.0521 12.0163 22.0521C11.5962 22.0521 11.2228 21.6641 11.2228 21.2275V19.8208C11.2228 19.3842 11.5962 18.9962 12.0163 18.9962Z" fill="#83B0FA"/>
<path fill-rule="evenodd" clip-rule="evenodd" d="M12.0163 19.1462C11.6844 19.1462 11.3728 19.4616 11.3728 19.8208V21.2275C11.3728 21.5867 11.6844 21.9022 12.0163 21.9022C12.3482 21.9022 12.6598 21.5867 12.6598 21.2275V19.8208C12.6598 19.4616 12.3482 19.1462 12.0163 19.1462ZM11.0728 19.8208C11.0728 19.3069 11.508 18.8462 12.0163 18.8462C12.5246 18.8462 12.9598 19.3069 12.9598 19.8208V21.2275C12.9598 21.7415 12.5246 22.2022 12.0163 22.2022C11.508 22.2022 11.0728 21.7415 11.0728 21.2275V19.8208Z" fill="#83B0FA"/>
<path d="M12.0163 12.9327C12.4364 12.9327 12.8099 13.3208 12.8099 13.7574V15.1641C12.8099 15.6007 12.4364 15.9887 12.0163 15.9887C11.5962 15.9887 11.2228 15.6007 11.2228 15.1641V13.7574C11.2228 13.2723 11.5962 12.9327 12.0163 12.9327Z" fill="#83B0FA"/>
<path fill-rule="evenodd" clip-rule="evenodd" d="M12.0163 13.0827C11.6787 13.0827 11.3728 13.3554 11.3728 13.7573V15.1641C11.3728 15.5233 11.6844 15.8387 12.0163 15.8387C12.3482 15.8387 12.6598 15.5233 12.6598 15.1641V13.7573C12.6598 13.3981 12.3482 13.0827 12.0163 13.0827ZM11.0728 13.7573C11.0728 13.1891 11.5137 12.7827 12.0163 12.7827C12.5246 12.7827 12.9598 13.2434 12.9598 13.7573V15.1641C12.9598 15.678 12.5246 16.1387 12.0163 16.1387C11.508 16.1387 11.0728 15.678 11.0728 15.1641V13.7573Z" fill="#83B0FA"/>
<path d="M12.0163 6.86932C12.4364 6.86932 12.8099 7.25738 12.8099 7.69395V9.10067C12.8099 9.53723 12.4364 9.92529 12.0163 9.92529C11.5962 9.92529 11.2228 9.53723 11.2228 9.10067V7.69395C11.2228 7.20888 11.5962 6.86932 12.0163 6.86932Z" fill="#83B0FA"/>
<path fill-rule="evenodd" clip-rule="evenodd" d="M12.0163 7.0193C11.6787 7.0193 11.3728 7.29203 11.3728 7.69393V9.10064C11.3728 9.45985 11.6844 9.77527 12.0163 9.77527C12.3482 9.77527 12.6598 9.45985 12.6598 9.10064V7.69393C12.6598 7.33472 12.3482 7.0193 12.0163 7.0193ZM11.0728 7.69393C11.0728 7.12567 11.5137 6.7193 12.0163 6.7193C12.5246 6.7193 12.9598 7.18 12.9598 7.69393V9.10064C12.9598 9.61457 12.5246 10.0753 12.0163 10.0753C11.508 10.0753 11.0728 9.61457 11.0728 9.10064V7.69393Z" fill="#83B0FA"/>
<path d="M21.072 16.4254H22.6124C23.0325 16.4254 23.4059 16.8134 23.4059 17.25C23.4059 17.6865 23.0325 18.0746 22.6124 18.0746H21.072C20.6519 18.0746 20.2784 17.6865 20.2784 17.25C20.2784 16.8134 20.6519 16.4254 21.072 16.4254Z" fill="#83B0FA"/>
<path fill-rule="evenodd" clip-rule="evenodd" d="M21.072 16.5753C20.7401 16.5753 20.4284 16.8907 20.4284 17.25C20.4284 17.6092 20.7401 17.9246 21.072 17.9246H22.6123C22.9442 17.9246 23.2559 17.6092 23.2559 17.25C23.2559 16.8907 22.9442 16.5753 22.6123 16.5753H21.072ZM20.1284 17.25C20.1284 16.736 20.5636 16.2753 21.072 16.2753H22.6123C23.1207 16.2753 23.5559 16.736 23.5559 17.25C23.5559 17.7639 23.1207 18.2246 22.6123 18.2246H21.072C20.5636 18.2246 20.1284 17.7639 20.1284 17.25Z" fill="#83B0FA"/>
<path d="M21.072 20.4514H22.6124C23.0325 20.4514 23.4059 20.8395 23.4059 21.276C23.4059 21.7126 23.0325 22.1007 22.6124 22.1007H21.072C20.6519 22.1007 20.2784 21.7126 20.2784 21.276C20.2784 20.8395 20.6519 20.4514 21.072 20.4514Z" fill="#83B0FA"/>
<path fill-rule="evenodd" clip-rule="evenodd" d="M21.072 20.6014C20.7401 20.6014 20.4284 20.9168 20.4284 21.276C20.4284 21.6352 20.7401 21.9506 21.072 21.9506H22.6123C22.9442 21.9506 23.2559 21.6352 23.2559 21.276C23.2559 20.9168 22.9442 20.6014 22.6123 20.6014H21.072ZM20.1284 21.276C20.1284 20.7621 20.5636 20.3014 21.072 20.3014H22.6123C23.1207 20.3014 23.5559 20.7621 23.5559 21.276C23.5559 21.7899 23.1207 22.2506 22.6123 22.2506H21.072C20.5636 22.2506 20.1284 21.7899 20.1284 21.276Z" fill="#83B0FA"/>
<path d="M18.1777 27H23.8725C25.5996 27 27 25.5448 27 23.75V11.6716H18.1777V1H1V27H16.5907H18.1777ZM25.4129 13.3209V23.75C25.4129 24.6231 24.7127 25.3507 23.8725 25.3507H18.1777V13.2724L25.4129 13.3209ZM2.58707 25.3507V2.64925H16.5907V11.6231V25.3022L2.58707 25.3507Z" fill="#83B0FA"/>
<path fill-rule="evenodd" clip-rule="evenodd" d="M0.849976 0.849976H18.3277V11.5216H27.15V23.75C27.15 25.6221 25.6878 27.15 23.8725 27.15H0.849976V0.849976ZM1.14998 1.14998V26.85H23.8725C25.5114 26.85 26.85 25.4674 26.85 23.75V11.8216H18.0277V1.14998H1.14998ZM2.43705 2.49923H16.7406V25.4517L2.43705 25.5012V2.49923ZM2.73705 2.79923V25.2002L16.4406 25.1527V2.79923H2.73705ZM18.0277 13.1214L25.5629 13.1719V23.75C25.5629 24.7005 24.8009 25.5007 23.8725 25.5007H18.0277V13.1214ZM18.3277 13.4234V25.2007H23.8725C24.6245 25.2007 25.2629 24.5458 25.2629 23.75V13.4699L18.3277 13.4234Z" fill="#83B0FA"/>
</svg>
