<svg width="42" height="21" viewBox="0 0 42 21" fill="none" xmlns="http://www.w3.org/2000/svg">
<rect x="1" y="1.14062" width="39.6139" height="18.8069" rx="9.40346" stroke="#4E8EF8" stroke-width="2"/>
<path d="M11.2833 12.183V16.4252H8.80249V4.38489H13.4995C14.4037 4.38489 15.1975 4.55028 15.8812 4.88106C16.5703 5.21183 17.0995 5.68319 17.4689 6.29514C17.8383 6.90156 18.0229 7.59344 18.0229 8.37077C18.0229 9.55055 17.6177 10.4822 16.8073 11.1659C16.0024 11.8439 14.8861 12.183 13.4582 12.183H11.2833ZM11.2833 10.1735H13.4995C14.1556 10.1735 14.6545 10.0192 14.9963 9.71043C15.3436 9.4017 15.5173 8.96066 15.5173 8.38731C15.5173 7.79742 15.3436 7.32055 14.9963 6.95669C14.649 6.59284 14.1694 6.40539 13.5574 6.39437H11.2833V10.1735Z" fill="#4E8EF8"/>
<path d="M24.6054 9.7187C24.2802 9.67459 23.9935 9.65254 23.7454 9.65254C22.8413 9.65254 22.2486 9.95851 21.9675 10.5705V16.4252H19.5776V7.47767H21.8352L21.9013 8.54443C22.381 7.723 23.0453 7.31228 23.8943 7.31228C24.1589 7.31228 24.407 7.34811 24.6385 7.41978L24.6054 9.7187Z" fill="#4E8EF8"/>
<path d="M25.0933 11.8688C25.0933 10.9812 25.2642 10.1901 25.6061 9.49542C25.9479 8.80078 26.4385 8.26327 27.078 7.88287C27.723 7.50248 28.47 7.31228 29.319 7.31228C30.5264 7.31228 31.5105 7.68165 32.2712 8.42039C33.0375 9.15913 33.4648 10.1625 33.553 11.4305L33.5696 12.0424C33.5696 13.4151 33.1864 14.5177 32.4201 15.3502C31.6538 16.1772 30.6256 16.5906 29.3356 16.5906C28.0455 16.5906 27.0146 16.1772 26.2428 15.3502C25.4765 14.5233 25.0933 13.3986 25.0933 11.9763V11.8688ZM27.4832 12.0424C27.4832 12.8914 27.6431 13.5419 27.9629 13.994C28.2826 14.4406 28.7402 14.6638 29.3356 14.6638C29.9144 14.6638 30.3665 14.4433 30.6918 14.0023C31.017 13.5557 31.1797 12.8446 31.1797 11.8688C31.1797 11.0363 31.017 10.3913 30.6918 9.9337C30.3665 9.47612 29.9089 9.24734 29.319 9.24734C28.7347 9.24734 28.2826 9.47612 27.9629 9.9337C27.6431 10.3858 27.4832 11.0887 27.4832 12.0424Z" fill="#4E8EF8"/>
</svg>
